<svg id="CISes" xmlns="http://www.w3.org/2000/svg" viewBox="0 0 100 100" width="100" height="100"><defs><style>.cls-1,.cls-4{fill:#fff;}.cls-2,.cls-3{fill:#c00;}.cls-3,.cls-4{stroke:#c00;}.cls-4{stroke-miterlimit:10;stroke-width:5px;}</style></defs><title>logo</title><g id="info"><circle class="cls-1" cx="50" cy="50" r="47.5"/><path class="cls-2" d="M50,5A45,45,0,1,1,5,50,45.05,45.05,0,0,1,50,5m0-5a50,50,0,1,0,50,50A50,50,0,0,0,50,0Z"/><path class="cls-3" d="M41.18,37.51v-2.3c.92-.37,2-.75,3.13-1.15s2.36-.75,3.59-1.06,2.39-.56,3.49-.78a16.1,16.1,0,0,1,3-.32L56,33,47.34,73.85h6.81v2.39a16.52,16.52,0,0,1-4.51,2.39,15,15,0,0,1-5.06.92,5.14,5.14,0,0,1-3.81-1.19,3.86,3.86,0,0,1-1.15-2.76A23.42,23.42,0,0,1,39.89,72c.19-1.17.43-2.45.74-3.87l6.44-29.71Zm7.45-20.42a4.91,4.91,0,0,1,1.47-3.77A5.42,5.42,0,0,1,54,11.94,5.72,5.72,0,0,1,58,13.32a4.91,4.91,0,0,1,1.47,3.77A4.49,4.49,0,0,1,58,20.67,6,6,0,0,1,54,22a5.65,5.65,0,0,1-3.87-1.29A4.49,4.49,0,0,1,48.63,17.09Z"/></g><g id="enchanced"><circle class="cls-4" cx="81.5" cy="80.5" r="15"/><path class="cls-3" d="M82.9,72.6v7.78h7.49v2H82.9v7.85H80.79V82.37H73.3v-2h7.49V72.6Z"/></g></svg>